<svg width="48" height="34" viewBox="0 0 48 34" fill="none" xmlns="http://www.w3.org/2000/svg"><g clip-path="url(#a)" fill="#2963A3"><path d="M12.55 1.2a1.04 1.04 0 0 0-.37-.79 1.22 1.22 0 0 0-.85-.33 1.11 1.11 0 0 0-1.07.73l-3.92 8.8-3.93-8.82a1.14 1.14 0 0 0-1.09-.71 1.4 1.4 0 0 0-1.22.7c-.07.14-.1.3-.1.46 0 .15.03.31.1.45l4.9 10.52-1.75 3.77a1.6 1.6 0 0 0-.13.52.96.96 0 0 0 .37.77c.23.2.53.3.83.3.22 0 .44-.07.62-.2.2-.13.36-.32.45-.54l7.06-15.14c.06-.15.1-.32.1-.49Zm24.63 10.58a1.15 1.15 0 0 0 .33.86 1.2 1.2 0 0 0 .87.32c.34.01.68-.1.94-.34a1.14 1.14 0 0 0 .36-.87v-10.44a1.25 1.25 0 0 0-.34-.92 1.46 1.46 0 0 0-1.87 0 1.21 1.21 0 0 0-.36.92v6.03c0 1.07-.3 1.94-.9 2.59a3.12 3.12 0 0 1-2.4.97c-.84 0-1.47-.23-1.88-.71-.4-.48-.6-1.22-.6-2.23v-6.65a1.25 1.25 0 0 0-.35-.92 1.27 1.27 0 0 0-.93-.34 1.3 1.3 0 0 0-.96.34 1.22 1.22 0 0 0-.34.92v6.68c0 3.35 1.5 5.03 4.52 5.03.8 0 1.6-.18 2.3-.57a3.99 3.99 0 0 0 1.61-1.64v.97Zm-22.73 20.12-.71-.05c-.68-.06-1.18-.27-1.51-.64-.33-.38-.5-.97-.5-1.78v-6.2h2.51c.3.02.6-.07.83-.25a.93.93 0 0 0 .3-.74.96.96 0 0 0-.3-.75 1.24 1.24 0 0 0-.83-.27h-2.51v-2.64a1.2 1.2 0 0 0-.36-.92c-.26-.23-.6-.35-.94-.34a1.27 1.27 0 0 0-.92.34 1.22 1.22 0 0 0-.35.92v2.64h-1.52c-.3-.02-.6.08-.83.27a.94.94 0 0 0-.29.75c0 .66.37.99 1.12.99h1.52v6.03c0 1.45.34 2.55 1.02 3.3.68.73 1.7 1.16 3.07 1.26l.69.05c.4.06.8-.02 1.15-.22a.88.88 0 0 0 .4-.78.93.93 0 0 0-.25-.68c-.22-.18-.5-.29-.79-.3Zm19.45-16.37c-.34-.01-.67.1-.93.32a1.17 1.17 0 0 0-.37.93v15.86a1.14 1.14 0 0 0 .37.93c.26.2.59.32.92.3.34.02.66-.1.92-.3a1.16 1.16 0 0 0 .35-.93v-15.86a1.2 1.2 0 0 0-.35-.93 1.32 1.32 0 0 0-.92-.32Zm13.64 16.19-4.98-4.44 4.53-4.18a1.22 1.22 0 0 0 .43-.9c0-.32-.14-.62-.36-.85a1.22 1.22 0 0 0-.84-.36c-.31.02-.61.16-.83.39l-5.8 5.46v-10.06a1.2 1.2 0 0 0-.35-.93 1.32 1.32 0 0 0-.91-.32c-.34-.01-.67.1-.93.32a1.17 1.17 0 0 0-.37.93v15.84a1.19 1.19 0 0 0 .37.94c.26.22.59.33.93.32.33.01.66-.1.91-.32a1.2 1.2 0 0 0 .36-.94v-4.75l6.32 5.64c.23.23.54.36.87.36a1.03 1.03 0 0 0 .78-.36 1.2 1.2 0 0 0-.13-1.8Zm-33.11-18.72h6.59a6.34 6.34 0 0 0 3.21-.79 5.38 5.38 0 0 0 2.13-2.27c.52-1.06.78-2.24.75-3.42a7.5 7.5 0 0 0-.75-3.45 5.37 5.37 0 0 0-2.13-2.28 6.34 6.34 0 0 0-3.21-.79h-2.08a6.33 6.33 0 0 0-3.21.8 5.34 5.34 0 0 0-2.14 2.27 7.5 7.5 0 0 0-.75 3.45v3.63c0 2.09.53 2.86 1.6 2.86Zm1.92-9.78a3.13 3.13 0 0 1 2.59-1.14h2.08c1.11 0 1.98.38 2.59 1.14.6.76.91 1.86.91 3.3 0 1.45-.3 2.55-.9 3.3a3.14 3.14 0 0 1-2.6 1.14h-5.56l-.03-4.44c0-1.45.3-2.54.92-3.3Zm11.52 18.45a6.32 6.32 0 0 0-3.21-.8h-2.08a6.35 6.35 0 0 0-3.22.8 5.36 5.36 0 0 0-2.13 2.27 7.54 7.54 0 0 0-.74 3.45 7.5 7.5 0 0 0 .74 3.43 5.37 5.37 0 0 0 2.13 2.27c.99.54 2.1.81 3.22.79h6.58c1.06 0 1.6-.77 1.6-2.87v-3.62a7.49 7.49 0 0 0-.76-3.45 5.33 5.33 0 0 0-2.13-2.27Zm.26 10.16h-5.55c-1.13 0-2-.38-2.6-1.13-.61-.75-.91-1.86-.9-3.31 0-1.44.3-2.54.9-3.3a3.14 3.14 0 0 1 2.6-1.14h2.08c1.11 0 1.98.38 2.59 1.14.6.77.92 1.86.92 3.3 0 1.45-.04 4.44-.04 4.44Z"/></g><defs><clipPath id="a"><path fill="#fff" d="M0 0h48v34h-48z"/></clipPath></defs></svg>