<svg width="221" height="50" viewBox="0 0 221 50" fill="none" xmlns="http://www.w3.org/2000/svg"><g clip-path="url(#a)" fill="#fff"><path d="M83.23 23.75c3.04-4.49 3.9-8.37 2.5-9.76-.43-.42-1.09-.65-1.95-.65-1.9 0-4.7 1.07-7.8 3.16a40.04 40.04 0 0 1 7.24 7.24l.01.01Zm-13.58-3.85a38.7 38.7 0 0 1 3.84-3.39c-3.1-2.1-5.9-3.16-7.8-3.16-.85 0-1.52.22-1.95.65-1.4 1.4-.53 5.26 2.5 9.76a41.5 41.5 0 0 1 3.4-3.85Zm12.69 5.1a37.76 37.76 0 0 0-7.6-7.6 37.77 37.77 0 0 0-7.6 7.6 37.79 37.79 0 0 0 7.6 7.6 37.77 37.77 0 0 0 7.6-7.6Zm-16.08 1.25c-3.04 4.49-3.9 8.37-2.51 9.76 1.39 1.39 5.26.53 9.76-2.52a41.5 41.5 0 0 1-7.24-7.24h-.01Z"/><path d="M52.03 0h-39.79c-6.9 0-12.5 5.6-12.5 12.5v25c0 6.9 5.6 12.5 12.5 12.5h75c6.9 0 12.5-5.6 12.5-12.5v-37.5h-47.71Zm-2.29 48.54h-37.5a11.06 11.06 0 0 1-11.04-11.04v-25c0-6.08 4.96-11.04 11.04-11.04h37.5v47.08Zm37.04-11.5a4.09 4.09 0 0 1-2.99 1.06c-2.43 0-5.67-1.33-9.05-3.7-3.38 2.37-6.62 3.7-9.05 3.7a4.07 4.07 0 0 1-2.98-1.07c-2.14-2.14-.96-6.92 2.63-12.03-3.59-5.1-4.77-9.89-2.63-12.03 2.14-2.15 6.92-.96 12.03 2.63 5.11-3.59 9.9-4.78 12.04-2.63 2.14 2.14.95 6.92-2.63 12.03 3.58 5.1 4.77 9.89 2.63 12.03Z"/><path d="M79.84 30.1a38.7 38.7 0 0 1-3.85 3.39c4.49 3.04 8.37 3.9 9.76 2.52 1.4-1.4.53-5.26-2.5-9.76-1 1.29-2.14 2.58-3.4 3.85Zm-69.54-14.89a7.23 7.23 0 0 0-1.53 5.82c1.08 4.81 5.54 5.58 8.82 6.01 2.6.34 5.07.81 5.01 3.12-.07 2.4-2.77 2.98-4.55 2.98-4.62 0-4.77-3.4-4.77-3.4h-4.97a8.32 8.32 0 0 0 2.04 5.1c1.73 1.94 4.33 2.91 7.71 2.91 2.6 0 4.97-.84 6.65-2.34v2.06h4.63v-5.9l1.64-1.8 4.68 7.7h5.39l-6.81-11.26 6.81-7.46h-6l-5.7 6.25v-12.5h-4.64v3.03c-.15-.2-.31-.39-.49-.58-1.68-1.79-4.1-2.7-7.22-2.7-3.58 0-5.62 1.61-6.7 2.96Zm6.79 1.38c2.08 0 4.16.47 4.95 3.36h2.66v4.43c-3.32-2.73-10.53-1.01-11.3-4.42-.4-1.78 1.37-3.37 3.69-3.37Zm94.45 17.75c.31.1.67.15 1.08.15.52 0 .94-.15 1.25-.46.32-.32.52-.73.62-1.2l-6.59-13.94h4.39l4.22 10 3.71-10h4.17l-5.94 13.75a12.47 12.47 0 0 1-2.47 4.02 4.01 4.01 0 0 1-2.9 1.32c-.36 0-.65 0-.88-.05a4.05 4.05 0 0 1-.65-.14l-.5-.15c-.13-.05-.26-.1-.39-.13v-3.52c.24.15.52.28.86.36h.02Zm20-2.07c-.26.08-.54.13-.85.2l-.98.14c-.34.05-.68.05-.99.05-.8 0-1.48-.08-2.1-.2a4.41 4.41 0 0 1-1.54-.68 2.83 2.83 0 0 1-.93-1.25 4.9 4.9 0 0 1-.31-1.83v-4.98h3.57v4.28c0 .38.05.73.15.95.08.26.24.47.44.62.2.15.44.26.75.31a6.77 6.77 0 0 0 2.54-.07c.37-.13.65-.26.85-.38v-5.7h3.58v13.79h-3.58v-5.44c-.15.05-.36.13-.62.2h.02Zm18.05 3.53c.03.26.1.5.18.61a.8.8 0 0 0 .26.37c.1.08.19.13.32.15v.57h-3.97l-.2-.65c-.1-.26-.14-.57-.14-.96l-.8.8a4.5 4.5 0 0 1-2.04 1.05 6.93 6.93 0 0 1-3.27-.1 4.3 4.3 0 0 1-1.35-.81c-.37-.37-.67-.8-.88-1.35a5.04 5.04 0 0 1-.05-3.42 3.92 3.92 0 0 1 1.94-2.17c.46-.27.98-.42 1.58-.5l3.5-.52c.14-.03.27-.03.42-.08a.95.95 0 0 0 .42-.18.93.93 0 0 0 .31-.32c.08-.15.13-.33.13-.57 0-.23-.05-.43-.1-.62-.08-.2-.2-.36-.36-.5a1.6 1.6 0 0 0-.67-.33c-.29-.08-.65-.1-1.07-.1-.5 0-.85.05-1.14.13a1.67 1.67 0 0 0-1.08 1.02l-.16.75h-3.57a4.39 4.39 0 0 1 .4-1.69 5.18 5.18 0 0 1 1.68-2.08c.42-.28.97-.55 1.59-.73a9.01 9.01 0 0 1 2.23-.32c1.22 0 2.23.14 3 .37.76.26 1.36.6 1.8.98.4.42.7.86.84 1.35.14.5.2.99.2 1.49v7.3c0 .42.04.76.09 1.02l-.04.03Zm-4.3-4.73c-.24.1-.53.2-.9.27l-.94.18c-.42.08-.79.15-1.1.26-.3.1-.56.24-.77.39-.2.18-.37.39-.47.62-.1.23-.15.52-.15.88 0 .29.05.55.13.75.1.24.23.39.41.55.16.13.34.27.55.32.24.08.47.1.73.1.14 0 .32-.03.52-.05.2-.03.42-.08.67-.15.24-.1.47-.2.7-.37.24-.13.44-.34.62-.57.2-.23.37-.52.47-.88.1-.34.18-.73.18-1.19v-1.4c-.2.13-.43.23-.65.31v-.02Zm14.31-3.44a1.9 1.9 0 0 0-1.14-1.14 3.68 3.68 0 0 0-1.01-.13c-.6 0-1.07.13-1.42.42-.37.28-.66.62-.84 1.03a5 5 0 0 0-.38 1.4c-.05.5-.1.96-.1 1.4 0 .45.03.94.08 1.43.05.51.15.95.36 1.37a2.34 2.34 0 0 0 2.32 1.45c.41 0 .78-.08 1.08-.26.29-.16.55-.37.75-.6.2-.27.37-.52.47-.8.08-.27.13-.52.13-.76h3.74a4.7 4.7 0 0 1-.52 2.05c-.18.39-.43.8-.73 1.22a5.78 5.78 0 0 1-2.77 1.89c-.62.2-1.35.32-2.15.32a7.59 7.59 0 0 1-2.78-.47c-.8-.34-1.48-.8-2.02-1.42a6.06 6.06 0 0 1-1.24-2.3 10.4 10.4 0 0 1-.44-3.11c0-1.16.15-2.24.47-3.14.31-.89.75-1.66 1.31-2.29a5.44 5.44 0 0 1 2.06-1.4 6.8 6.8 0 0 1 2.65-.5c.41 0 .85.05 1.32.1a6.3 6.3 0 0 1 2.59 1c.38.25.75.59 1.08.98a5.45 5.45 0 0 1 1.17 3.2h-3.74c-.08-.36-.15-.7-.28-.95l-.02.01Zm16.5-3.92v2.9h-4.16v10.9h-3.58v-10.9h-4.17v-2.9h11.93-.01Zm9.96 4.99v-4.98h3.57v13.8h-3.57v-5.9h-5.26v5.9h-3.57v-13.8h3.57v4.98h5.26Zm9.6 3.52 5.04-8.51h3.76v13.8h-3.58v-8.33h-.05l-4.87 8.33h-3.92v-13.8h3.57v8.51h.05Zm19.99-8.51h4.77l-5.7 5.73 5.94 8.06h-4.67l-4.05-5.84-1.45 1.48v4.36h-3.57v-13.8h3.57v5.24l5.16-5.24v.01Z"/></g><defs><clipPath id="a"><path fill="#fff" d="M0 0h221v50h-221z"/></clipPath></defs></svg>