<svg width="20" height="12" viewBox="0 0 20 12" fill="none" xmlns="http://www.w3.org/2000/svg"><g clip-path="url(#a)"><path d="M19.82 10.54c-.05-.1-.38-.84-1.98-2.38-1.68-1.6-1.45-1.35.56-4.13 1.23-1.7 1.72-2.73 1.57-3.18-.15-.42-1.05-.3-1.05-.3l-3 .01s-.23-.03-.4.07c-.16.1-.26.34-.26.34s-.48 1.3-1.11 2.42c-1.34 2.36-1.88 2.48-2.1 2.34-.5-.34-.38-1.37-.38-2.1 0-2.28.34-3.24-.65-3.48a4.99 4.99 0 0 0-1.4-.15c-1.07 0-1.98 0-2.5.27-.34.17-.6.56-.44.58.2.03.65.12.89.46.3.44.3 1.41.3 1.41s.17 2.69-.42 3.02c-.4.23-.96-.24-2.16-2.37-.6-1.1-1.07-2.3-1.07-2.3s-.09-.23-.25-.35c-.2-.15-.46-.2-.46-.2l-2.86.02s-.43.01-.58.2c-.14.18-.02.53-.02.53s2.24 5.42 4.77 8.16c2.33 2.5 4.97 2.34 4.97 2.34h1.2s.35-.04.54-.25c.17-.19.16-.54.16-.54s-.02-1.66.72-1.9c.73-.25 1.68 1.6 2.68 2.3.75.54 1.33.43 1.33.43l2.67-.04s1.4-.1.73-1.23Z" fill="#333"/></g><defs><clipPath id="a"><path fill="#fff" d="M0 0h20v12h-20z"/></clipPath></defs></svg>