<svg width="32" height="32" viewBox="0 0 32 32" fill="none" xmlns="http://www.w3.org/2000/svg"><g clip-path="url(#a)"><path d="M0 16a16 16 0 1 1 32 0 16 16 0 0 1-32 0Z" fill="#333"/><path fill-rule="evenodd" clip-rule="evenodd" d="M15.68 0c-.08 6.58-.51 10.27-2.96 12.72-2.45 2.45-6.14 2.88-12.72 2.96v.95c6.58.08 10.27.5 12.72 2.96 2.41 2.41 2.87 6.02 2.95 12.41h.97c.08-6.39.54-10 2.95-12.41s6.02-2.87 12.41-2.95v-.97c-6.39-.08-10-.54-12.41-2.95-2.45-2.45-2.88-6.14-2.96-12.72h-.95Z" fill="#fff"/></g><defs><clipPath id="a"><path fill="#fff" d="M0 0h32v32h-32z"/></clipPath></defs></svg>